<svg width="235" height="69" viewBox="0 0 235 69" fill="none" xmlns="http://www.w3.org/2000/svg">
<path d="M44.8281 0.40625C44.6406 3.34375 44.4688 6.25 44.3125 9.125C44.1562 12 43.9531 14.9062 43.7031 17.8438L23.8281 18.875V24.7812H41.0781L40.1406 39.3125L23.7344 39.7812L23.8281 67.5312L0.109375 68L1.60938 0.40625H44.8281ZM88.4219 41.2812L86.4531 62.0938L46.9844 65.1875C47.1719 54.2812 47.375 43.4375 47.5938 32.6562C47.8438 21.875 48.1406 11.0312 48.4844 0.125H72.8594C72.1406 6.96875 71.4531 13.8125 70.7969 20.6562C70.1406 27.4688 69.6719 34.3438 69.3906 41.2812C70.8594 41.3438 72.3125 41.375 73.75 41.375C75.1875 41.375 76.6406 41.375 78.1094 41.375C79.8594 41.375 81.5781 41.3594 83.2656 41.3281C84.9531 41.2969 86.6719 41.2812 88.4219 41.2812ZM148.562 34.9062C148.562 37.75 148.234 40.5 147.578 43.1562C146.922 45.7812 145.969 48.25 144.719 50.5625C143.5 52.875 142 55 140.219 56.9375C138.469 58.8438 136.484 60.4844 134.266 61.8594C132.078 63.2344 129.688 64.3125 127.094 65.0938C124.5 65.8438 121.75 66.2188 118.844 66.2188C116.031 66.2188 113.344 65.8594 110.781 65.1406C108.25 64.4219 105.875 63.4219 103.656 62.1406C101.438 60.8281 99.4219 59.2656 97.6094 57.4531C95.8281 55.6094 94.2969 53.5781 93.0156 51.3594C91.7656 49.1094 90.7812 46.7031 90.0625 44.1406C89.375 41.5781 89.0312 38.9062 89.0312 36.125C89.0312 33.4062 89.3594 30.75 90.0156 28.1562C90.6719 25.5312 91.6094 23.0625 92.8281 20.75C94.0781 18.4375 95.5781 16.3125 97.3281 14.375C99.0781 12.4375 101.031 10.7656 103.188 9.35938C105.375 7.95312 107.734 6.85938 110.266 6.07812C112.797 5.29688 115.469 4.90625 118.281 4.90625C122.812 4.90625 126.938 5.60938 130.656 7.01562C134.406 8.42188 137.594 10.4375 140.219 13.0625C142.875 15.6562 144.922 18.8125 146.359 22.5312C147.828 26.2188 148.562 30.3438 148.562 34.9062ZM127.75 36.125C127.75 34.7812 127.547 33.4844 127.141 32.2344C126.766 30.9531 126.203 29.8281 125.453 28.8594C124.703 27.8594 123.766 27.0625 122.641 26.4688C121.547 25.8438 120.281 25.5312 118.844 25.5312C117.375 25.5312 116.062 25.7969 114.906 26.3281C113.75 26.8594 112.75 27.5938 111.906 28.5312C111.094 29.4375 110.469 30.5156 110.031 31.7656C109.594 32.9844 109.375 34.2812 109.375 35.6562C109.375 36.9688 109.562 38.2812 109.938 39.5938C110.312 40.9062 110.875 42.0938 111.625 43.1562C112.375 44.2188 113.297 45.0781 114.391 45.7344C115.516 46.3906 116.812 46.7188 118.281 46.7188C119.75 46.7188 121.062 46.4375 122.219 45.875C123.406 45.2812 124.406 44.5 125.219 43.5312C126.031 42.5312 126.656 41.3906 127.094 40.1094C127.531 38.8281 127.75 37.5 127.75 36.125ZM234.719 2.9375L223.75 67.9062L197.125 68.4688L191.406 34.8125L185.688 66.0312L159.062 66.9688L148 2.9375L171.25 0.875L175.938 39.7812L182.219 0.875H200.5L207.812 40.25L211.562 0.875L234.719 2.9375Z" fill="#375AFF"/>
</svg>
